# xmcd
#
# Track frame offsets: 
#        150
#        14807
#        33301
#        53860
#        65758
#        79471
#        101231
#        117827
#        135668
#        151487
#        170964
#        190066
#        215939
#        232550
#        245405
#
# Disc length: 3495 seconds
#
# Revision: 1
# Processed by: cddbd v1.5.2PL0 Copyright (c) Steve Scherf et al.
# Submitted via: ExactAudioCopy v1.0b1
#
DISCID=dd0da50f
DTITLE=Jim Hurst - A Box of Chocolates
DYEAR=2007
DGENRE=Country
TTITLE0=Chocolate Chaise Lounge
TTITLE1=Look Down Hannah
TTITLE2=Mando Bounce
TTITLE3=I Ain't Gonna Cry For You
TTITLE4=Wildcatter
TTITLE5=Nine Pound Hammer
TTITLE6=Kentucky Sunrise Waltz
TTITLE7=Darlin' Tell Me Why
TTITLE8=C5 A La Mode
TTITLE9=Little Baby Child
TTITLE10=Unlucky Seven
TTITLE11=Mary Of The Wild Moor
TTITLE12=Susie Q
TTITLE13='Til There Was You
TTITLE14=Young At Heart
EXTD=
EXTT0=
EXTT1=
EXTT2=
EXTT3=
EXTT4=
EXTT5=
EXTT6=
EXTT7=
EXTT8=
EXTT9=
EXTT10=
EXTT11=
EXTT12=
EXTT13=
EXTT14=
PLAYORDER=
